<?xml version="1.0" encoding="UTF-8"?>
<svg width="90px" height="90px" viewBox="0 0 90 90" version="1.1" xmlns="http://www.w3.org/2000/svg" xmlns:xlink="http://www.w3.org/1999/xlink">
    <title>Chat-icon-desktop</title>
    <defs>
        <filter x="-16.7%" y="-16.7%" width="133.3%" height="133.3%" filterUnits="objectBoundingBox" id="filter-1">
            <feOffset dx="0" dy="2" in="SourceAlpha" result="shadowOffsetOuter1"></feOffset>
            <feGaussianBlur stdDeviation="2" in="shadowOffsetOuter1" result="shadowBlurOuter1"></feGaussianBlur>
            <feColorMatrix values="0 0 0 0 0   0 0 0 0 0   0 0 0 0 0  0 0 0 0.5 0" type="matrix" in="shadowBlurOuter1" result="shadowMatrixOuter1"></feColorMatrix>
            <feMerge>
                <feMergeNode in="shadowMatrixOuter1"></feMergeNode>
                <feMergeNode in="SourceGraphic"></feMergeNode>
            </feMerge>
        </filter>
    </defs>
    <g id=".se" stroke="none" stroke-width="1" fill="none" fill-rule="evenodd">
        <g id=".se-copy-9" transform="translate(-1314.000000, -834.000000)">
            <g id="Chat-icon-desktop" filter="url(#filter-1)" transform="translate(1323.000000, 843.000000)">
                <circle id="Oval" fill="#5B8AD6" cx="36" cy="36" r="36"></circle>
                <path d="M47.8386119,25.402529 C49.6449863,26.2100836 51.3235871,27.3574917 52.7270881,28.7846337 C57.7420466,33.8840666 58.7978275,41.6226795 55.4105308,47.8851408 L56.5982842,52.3583277 C56.8182384,53.3871605 56.5982842,54.3265297 55.9824121,54.9527758 C55.3225491,55.5790219 54.3987409,55.8026813 53.4309419,55.5790219 L48.8998828,54.4607253 C46.6123576,55.6684857 44.1048782,56.25 41.6413899,56.25 C37.5502394,56.25 33.5030797,54.6396529 30.46771,51.553154 C29.9761743,51.029538 29.4597306,50.4172754 28.9780172,49.763533 C29.3267373,49.7825736 29.6766326,49.7922873 30.028801,49.7922873 C31.0004364,49.7922873 31.9547681,49.7183454 32.8864555,49.5757919 C36.9392534,53.4684669 43.0675716,54.2642627 47.9320835,51.4189584 L48.5479557,51.0611035 L49.2078186,51.3294946 L53.3869511,52.3583277 L52.375161,48.198264 C52.3311701,48.1535322 52.3311701,48.1535322 52.3311701,48.1088002 L52.111216,47.4378223 L52.4631429,46.856308 C55.4985125,41.7121432 54.706677,35.1812907 50.5715356,30.9764952 C50.0008877,30.3962351 49.3452631,29.8543787 48.6527786,29.3776135 C48.5251489,28.0048138 48.2483203,26.6739338 47.8386119,25.402529 Z M40.9093987,20.2549757 C46.9403365,26.2399059 46.9403365,35.9979442 40.9093987,42.0262433 C35.8763857,47.0136852 28.2834783,47.8376973 22.3827046,44.4549107 C22.2959285,44.4982799 22.2525404,44.5416488 22.1657644,44.5416488 L16.9158113,45.8427206 C15.8744982,46.0595659 15.2236776,45.4523991 15.4840059,44.4115417 L16.7856471,39.1638855 C16.7856471,39.1638855 16.8290352,39.1205163 16.8290352,39.0771473 C13.2712157,33.1355863 14.0088124,25.3291556 19.1286014,20.2549757 C25.1595393,14.2266765 34.8784607,14.2700455 40.9093987,20.2549757 Z" id="Combined-Shape" fill="#FFFFFF"></path>
            </g>
        </g>
    </g>
</svg>